<?xml version="1.0" encoding="utf-8"?>
<!-- Generator: Adobe Illustrator 25.4.1, SVG Export Plug-In . SVG Version: 6.00 Build 0)  -->
<svg version="1.1" id="Capa_1" xmlns="http://www.w3.org/2000/svg" xmlns:xlink="http://www.w3.org/1999/xlink" x="0px" y="0px"
	 viewBox="0 0 300 300" style="enable-background:new 0 0 300 300;" xml:space="preserve">
<style type="text/css">
	.st0{fill:#FFFFFF;}
</style>
<g>
	<polygon class="st0" points="204.1,194.5 204.1,194.5 204.1,194.5 	"/>
	<path class="st0" d="M184,152.7c5.3,0,10.9,0.1,17.6,0.3l0.9,0l0.1-0.9l0.1-1.9l-1.1-0.1c-6-0.8-12-1.5-17.9-1.8
		c-0.2-3.9-0.4-7.7-0.6-11.6c-0.2-4.5-0.5-9.2-0.8-13.6l-0.3-4.3l-0.3-3.3c-0.4-4.8-0.8-9.7-1.2-14.6l-0.9-8.9l-1-8.9
		c-0.4-3.2-0.8-6-1.3-8.9c0-0.2-0.1-0.5-0.1-0.7l-0.2-0.9c-0.2-0.9-0.3-1.9-0.5-2.8c-0.2-0.8-0.3-1.5-0.5-2.3
		c-0.1-0.4-0.2-0.8-0.3-1.2c-0.1-0.2-0.1-0.4-0.2-0.7c-0.1-0.1-0.1-0.3-0.2-0.5l-0.1-0.2c-0.1-0.1-0.1-0.2-0.2-0.2v0
		c-0.2-0.2-0.6-0.3-0.8-0.4v0c-0.5-0.1-1,0.1-1.2,0.3l-0.1,0.1c-0.4,0.3-0.5,0.6-0.5,0.8l-0.1,0.1c0,0.1-0.1,0.3-0.1,0.5
		c0,0.1-0.1,0.3-0.1,0.4l0,0.2l-0.2,1.5c-0.1,0.8-0.2,1.7-0.4,2.5c-0.3,1.5-0.6,3.2-1.1,5c-0.8,3.3-1.8,6.6-3,9.8
		c-2.1,5.8-4.7,11.9-8.2,18.8c-6.8,13.4-14.5,26.2-20.4,35.9c-2.6,4.4-5.4,8.8-8,13c-0.8-10-1.9-19.7-3.1-28.9l0.3-3.8l-2.9,2.9
		c-1.4,1.4-2.7,2.9-3.8,4.2c-0.5,0.6-1,1.2-1.5,1.8c-0.7,0.8-1.4,1.6-2.1,2.4c-0.6,0.7-1.2,1.4-1.8,2.1l-5.3,6.1l-0.7,0.8
		c-2.1,2.4-4.4,4.8-6.6,7.1c-1.2,1.2-2.5,2.5-3.8,3.6c-0.7,0.6-1.3,1.1-2,1.6c-0.3,0.3-0.7,0.5-1,0.7l-0.1,0.1
		c-0.3,0.2-0.6,0.4-0.9,0.5l-0.6,0.3l0.4,2.6l0.9-0.1c2.4-0.2,4.3-1.2,5.9-2.1c0.9-0.5,1.8-1.1,2.5-1.6c0.5-0.4,1-0.7,1.5-1.1
		c0.3-0.2,0.5-0.4,0.8-0.6c2.6-2.1,5.2-4.6,8.2-8c2.7-3.2,4.9-6.2,6.8-9c0.5-0.8,1-1.6,1.5-2.4c0.1-0.2,0.3-0.5,0.4-0.7
		c0.4-0.6,0.7-1.1,1-1.7c0-0.1,0.1-0.1,0.1-0.2c0.4,11,0.7,21.3,0.9,31.4c-2.7,4.3-5.7,9.4-8.7,14.4c-4.3,7.3-7.4,13-10.1,18.4
		c-2.8,5.6-6,12.4-8.3,19.8c-1.2,4.1-1.9,7.6-2.2,11c-0.4,4.6,0.2,8.5,1.6,12c0.9,2,2.1,3.9,3.5,5.4c1.3,1.5,2.9,2.7,5,3.9
		c1.6,0.9,3.4,1.7,5.5,2.4c0.9,0.3,1.8,0.6,2.8,0.8l0.9,0.2c0.3,0.1,0.6,0.1,0.8,0.1c0.3,0,0.6,0.1,1,0.1c0.4,0,0.9,0,1.4-0.1
		c1.5-0.2,3-0.9,4.1-1.9c0.9-0.7,1.7-1.6,2.5-2.8c1.4-2,2.2-4,2.7-5.6c1.3-3.8,2-7.6,2.6-10.8c1.2-7.2,1.5-14.4,1.8-21.2
		c0.1-3.3,0.2-6.8,0.2-10.5c0-3.1-0.1-6.4-0.2-10.5c-0.2-7.1-0.5-14.1-1-20.9l-0.1-1c1.4-2.4,2.8-4.8,4.2-7.2
		c2.8-4.7,5.6-9.5,8.3-14.3c3.9-6.7,7.2-12.7,10.2-18.2c3.6-6.7,6.6-12.8,9.3-18.8c3.2-7.2,5.7-13.6,7.6-19.7c1-3.2,1.7-5.9,2.2-8.4
		c0.1,1.8,0.2,3.6,0.2,5.3l0.8,17.8l0.8,17.9l1,17.8c0.2,3.5,0.4,7.1,0.6,10.6l0,0.2c-1.7-0.1-3.2-0.1-4.7-0.1
		c-4.4,0-9.7,0-15.1,0.8c-1.5,0.2-2.7,0.5-3.9,0.8c-1.2,0.3-2.6,0.8-4.1,1.6c-0.6,0.4-1.5,0.9-2.2,1.8c-0.8,0.9-1.4,2.2-1.4,3.4
		c-0.1,1.1,0.1,2.2,0.7,3.3c0.4,0.9,0.9,1.5,1.4,2.2c0.2,0.2,0.3,0.4,0.5,0.6l2.1,2.3c0.7,0.7,1.3,1.5,1.9,2.2l0.4,0.4
		c0.9,1.1,1.6,1.9,2.2,2.8c0.3,0.3,0.5,0.7,0.8,1c0.5,0.6,0.9,1.2,1.4,1.8c2.5,3.3,5,7,8.3,11.9c2.3,3.4,4.5,6.7,6.8,10.1
		c3.1,4.7,6.3,9.5,9.6,14.2l2.4,5.1l0.4-5.8c0.4-6,0.5-12.1,0.5-18c0-7,0-12.7-0.2-17.9C184.5,166.4,184.3,160,184,152.7z
		 M170.2,181.4c-0.5-0.9-1.1-1.7-1.6-2.6l-0.8-1.2c-0.5-0.8-1.1-1.7-1.7-2.5L164,172l-2.2-3c-0.5-0.7-1-1.3-1.5-2
		c-0.3-0.3-0.5-0.7-0.8-1c-0.7-0.9-1.4-1.8-2.4-2.9l-0.4-0.4c-0.7-0.8-1.4-1.7-2.2-2.4l-2.4-2.6c-0.4-0.4-0.6-0.9-0.7-1.1l0,0
		c0-0.1,0.2-0.2,0.6-0.5c0.4-0.2,0.9-0.5,1.4-0.7c1.5-0.6,3.3-1,4.6-1.2c4.8-0.9,9.9-1.2,14.2-1.3c1.6-0.1,3.3-0.1,4.9-0.1
		c0,0.7,0.1,1.4,0.1,2.2c0.1,1.6,0.2,3.3,0.3,5c0.3,4,0.6,8.4,0.9,12.8c0.6,8.2,1.2,16.6,1.9,24.7l0.2,2.7c-0.9-1.9-1.9-3.8-3-5.9
		C175.2,189.7,172.7,185.4,170.2,181.4z M126,186.6c-0.1,8.3-0.3,14.6-0.6,20.6c-0.4,7.7-1.1,14.3-2,20.2c-0.7,3.9-1.4,6.9-2.3,9.4
		c-0.6,1.6-1.2,2.8-1.8,3.8c-0.3,0.5-0.7,0.8-1,1.1c-0.3,0.2-0.4,0.2-0.5,0.3c-0.1,0-0.2,0-0.2,0l-0.1,0c-0.1,0-0.1,0-0.2,0
		l-0.5-0.1c-0.8-0.2-1.5-0.4-2.2-0.6c-1.6-0.5-2.9-1.1-4-1.7c-2.5-1.4-4.3-3.4-5.3-5.7c-1-2.3-1.3-5.1-1.1-8.4
		c0.2-2.8,0.8-5.8,1.9-9.4c0.4-1.4,0.9-2.8,1.4-4.2c1.5-4.3,3.5-8.9,6.2-14.4c2.6-5.3,5.6-10.9,9.7-18.1c0.9-1.6,1.8-3.1,2.7-4.7
		C126,178.3,126,182.5,126,186.6z"/>
	<path class="st0" d="M200.8,189.3L200.8,189.3L200.8,189.3c-0.5,0.2-0.8,0.4-1.1,0.6c-0.7,0.4-1.2,0.8-1.6,1.1l-0.2,0.2
		c-0.3,0.3-0.6,0.7-0.9,1.4c-0.3,0.7-0.3,1.3-0.2,2.1c0.1,0.5,0.3,1,0.5,1.4c0.3,0.4,0.6,0.8,0.9,1.1c0.7,0.5,1.2,0.7,1.6,0.9
		c0.5,0.2,0.9,0.2,1.2,0.3c0.6,0.1,1.2,0.1,1.8,0c0.5-0.1,1-0.2,1.5-0.5c0.5-0.2,1-0.5,1.3-1.1c0.7-0.9,1-2.5,0.8-4
		c0-0.2-0.1-0.3-0.1-0.5c-0.2-0.5-0.4-1-0.8-1.4l-0.8-0.8c-0.2-0.2-0.3-0.4-0.5-0.5c-0.5-0.4-1.2-0.7-1.8-0.7
		C201.7,188.9,201.2,189.1,200.8,189.3z"/>
	<path class="st0" d="M126,109.4L126,109.4L126,109.4c-0.1-0.5-0.1-0.9-0.2-1.2c-0.2-0.8-0.4-1.3-0.6-1.8l-0.2-0.3
		c-0.2-0.3-0.4-0.8-1.1-1.3c-0.5-0.4-1.2-0.7-1.9-0.8c-0.5-0.1-1,0-1.5,0.1c-0.5,0.1-1,0.3-1.3,0.6c-0.7,0.5-1.1,0.9-1.4,1.3
		c-0.3,0.4-0.5,0.7-0.6,1c-0.3,0.6-0.4,1.1-0.5,1.7c-0.1,0.5-0.1,1,0,1.6c0.1,0.5,0.2,1.1,0.6,1.6c0.7,1,2.1,1.7,3.6,1.9
		c0.2,0,0.3,0,0.5,0c0.6,0,1.1-0.1,1.6-0.3l1-0.5c0.2-0.1,0.5-0.2,0.7-0.4c0.6-0.3,1-0.9,1.2-1.5C126.1,110.4,126,109.8,126,109.4z"
		/>
</g>
</svg>
