<svg xmlns="http://www.w3.org/2000/svg" viewBox="0 0 55.78 8.46"><defs><style>.cls-1{fill:#fff;}</style></defs><g id="Capa_2" data-name="Capa 2"><g id="Capa_1-2" data-name="Capa 1"><path class="cls-1" d="M5.21,0A3.05,3.05,0,0,1,6.78.42,3.12,3.12,0,0,1,7.92,1.56a3,3,0,0,1,.42,1.56V8.34H3.65v-1A2,2,0,0,0,3,5.82a2,2,0,0,0-1.48-.61V8.34H0V3.12A3,3,0,0,1,.92.92,3,3,0,0,1,3.12,0Z"/><path class="cls-1" d="M10.75,5.28V8.4H9.19V.06h4.69v1a2,2,0,0,0,.61,1.48A2,2,0,0,0,16,3.19V.06h1.57V8.4H12.84v-1a2,2,0,0,0-.61-1.47A2,2,0,0,0,10.75,5.28Z"/><path class="cls-1" d="M25,3.19V.06h1.58V3.71a1.52,1.52,0,0,1-.47,1.11A1.48,1.48,0,0,1,25,5.28V8.46h-5.2V5.28a1.49,1.49,0,0,1-1.11-.46,1.54,1.54,0,0,1-.45-1.11V.06h4.69v1a2,2,0,0,0,.6,1.48A2,2,0,0,0,25,3.19Z"/><path class="cls-1" d="M36,3.19V.06h1.62V8.4H35.58a3,3,0,0,1-2.21-.92,3,3,0,0,1-.92-2.2,3,3,0,0,1-.91,2.2,3,3,0,0,1-2.21.92H27.24V.06h3.12V3.19a2,2,0,0,0,1.48-.61,2,2,0,0,0,.61-1.48v-1H34v1a2,2,0,0,0,.61,1.48A2,2,0,0,0,36,3.19Z"/><path class="cls-1" d="M43.73.06A3.05,3.05,0,0,1,45.3.48a3.12,3.12,0,0,1,1.14,1.14,3.05,3.05,0,0,1,.42,1.57V8.4H42.17V5.28a2,2,0,0,0-1.48.61,2,2,0,0,0-.61,1.47v1H38.52V3.19A3,3,0,0,1,39.44,1a3,3,0,0,1,2.2-.92Z"/><path class="cls-1" d="M54.2,3.19V.06h1.58V3.71a1.52,1.52,0,0,1-.47,1.11,1.48,1.48,0,0,1-1.11.46V8.46H49V5.28a1.49,1.49,0,0,1-1.11-.46,1.54,1.54,0,0,1-.45-1.11V.06h4.69v1a2,2,0,0,0,.6,1.48A2,2,0,0,0,54.2,3.19Z"/></g></g></svg>