<svg xmlns="http://www.w3.org/2000/svg" viewBox="0 0 38.84 17.96"><defs><style>.cls-1{fill:#f6ef9a;}.cls-2{fill:#afd291;}.cls-3{fill:#96bcce;}.cls-4{fill:#ba95c5;}.cls-5{fill:#c19595;}.cls-6{fill:#fff;}</style></defs><g id="Capa_2" data-name="Capa 2"><g id="Capa_1-2" data-name="Capa 1"><path class="cls-1" d="M3.5,8H1.75A1,1,0,0,1,1,7.72l0,0L1,7.72A1,1,0,0,1,.25,8H0V0H1.75A1.67,1.67,0,0,1,3,.52,1.67,1.67,0,0,1,3.5,1.75v1.5A1,1,0,0,1,3.2,4l0,0,0,0a.94.94,0,0,1,.3.7ZM1.25,7a.55.55,0,0,0,.14.37.55.55,0,0,0,.36.13H3V4.75a.51.51,0,0,0-.5-.5v-.5a.54.54,0,0,0,.36-.14A.51.51,0,0,0,3,3.25V1.75A1.18,1.18,0,0,0,2.63.87,1.18,1.18,0,0,0,1.75.5H.5V7.44l.11-.08A.51.51,0,0,0,.75,7Z"/><path class="cls-2" d="M6.21,8A1.74,1.74,0,0,1,4.46,6.25V4.75A1.66,1.66,0,0,1,5,3.52a1.73,1.73,0,0,1,2.47,0A1.67,1.67,0,0,1,8,4.75,1.71,1.71,0,0,1,7.44,6H8v.25A1.74,1.74,0,0,1,6.21,8Zm0-4.5a1.17,1.17,0,0,0-.89.37A1.19,1.19,0,0,0,5,4.75v1.5A1.23,1.23,0,0,0,6.21,7.5a1.26,1.26,0,0,0,1.23-1H6.21V6a1.21,1.21,0,0,0,.88-.36,1.19,1.19,0,0,0,.37-.89,1.18,1.18,0,0,0-.37-.88A1.18,1.18,0,0,0,6.21,3.5Z"/><path class="cls-3" d="M10.26,8A1.72,1.72,0,0,1,8.51,6.25v-3A1.69,1.69,0,0,1,9,2a1.71,1.71,0,0,1,1.25-.52h1V3H12V5h-.75V6H12v.25A1.74,1.74,0,0,1,10.26,8Zm0-6a1.17,1.17,0,0,0-.89.37A1.15,1.15,0,0,0,9,3.25v3a1.16,1.16,0,0,0,.36.89,1.2,1.2,0,0,0,.89.36,1.19,1.19,0,0,0,.87-.36,1.14,1.14,0,0,0,.35-.64h-.72v-2h.75v-1h-.75V2Z"/><path class="cls-4" d="M15.43,8h-1a1.74,1.74,0,0,1-1.75-1.75V3h1.75a1.69,1.69,0,0,1,1.24.52,1.66,1.66,0,0,1,.51,1.23V5h-.75ZM13.18,3.5V6.25a1.2,1.2,0,0,0,.36.89,1.23,1.23,0,0,0,.89.36h.5v-3h.73a1.21,1.21,0,0,0-.35-.63,1.16,1.16,0,0,0-.88-.37Z"/><path class="cls-5" d="M18.52,8a1.72,1.72,0,0,1-1.75-1.75V4.75a1.69,1.69,0,0,1,.5-1.23A1.71,1.71,0,0,1,18.52,3a1.78,1.78,0,0,1,1.75,1.75v1.5A1.74,1.74,0,0,1,18.52,8Zm0-4.5a1.17,1.17,0,0,0-.89.37,1.15,1.15,0,0,0-.36.88v1.5a1.16,1.16,0,0,0,.36.89,1.2,1.2,0,0,0,.89.36,1.19,1.19,0,0,0,.87-.36,1.16,1.16,0,0,0,.38-.89V4.75a1.18,1.18,0,0,0-.37-.88A1.19,1.19,0,0,0,18.52,3.5Z"/><path class="cls-6" d="M18.89,15.5a1.39,1.39,0,0,1-1-.42,1.4,1.4,0,0,1-.41-1V10.38a1.38,1.38,0,0,1,.41-1,1.36,1.36,0,0,1,1-.43,1.32,1.32,0,0,1,1,.43,1.36,1.36,0,0,1,.43,1v1.43h-.44v0a1.35,1.35,0,0,1,.43,1v1.23a1.38,1.38,0,0,1-.43,1A1.35,1.35,0,0,1,18.89,15.5Zm0-6.15a1,1,0,0,0-.72.3,1,1,0,0,0-.3.73v3.68a1,1,0,0,0,.29.73,1,1,0,0,0,.73.3,1,1,0,0,0,1-1V12.83a.94.94,0,0,0-.3-.71,1,1,0,0,0-.73-.31V11.4h1v-1a1,1,0,0,0-1-1Z"/><path class="cls-6" d="M22.47,15.5a1.39,1.39,0,0,1-1-.42,1.46,1.46,0,0,1,0-2H21v-.21a1.41,1.41,0,0,1,.41-1,1.39,1.39,0,0,1,1-.42,1.32,1.32,0,0,1,1,.43,1.34,1.34,0,0,1,.42,1v1.23a1.43,1.43,0,0,1-1.43,1.44Zm0-2.87V13a1,1,0,0,0-.73.3,1.05,1.05,0,0,0,0,1.45,1,1,0,0,0,.73.3,1,1,0,0,0,.72-.3,1,1,0,0,0,.3-.73V12.83a.91.91,0,0,0-.3-.71.94.94,0,0,0-.72-.31,1,1,0,0,0-1,.82Z"/><path class="cls-6" d="M26.27,15.5H24.63V8.94h.21a1.45,1.45,0,0,1,1.43,1.44ZM25,15.09h.82V10.38a1,1,0,0,0-.3-.72A.94.94,0,0,0,25,9.37Z"/><path class="cls-6" d="M28.61,15.5H27V8.94h.21a1.45,1.45,0,0,1,1.43,1.44Zm-1.23-.41h.82V10.38a1.05,1.05,0,0,0-.82-1Z"/><path class="cls-6" d="M30.74,15.5a1.39,1.39,0,0,1-1-.42,1.4,1.4,0,0,1-.41-1V12.83a1.41,1.41,0,0,1,.41-1,1.39,1.39,0,0,1,1-.42,1.32,1.32,0,0,1,1,.43,1.4,1.4,0,0,1,0,2h.43v.2a1.38,1.38,0,0,1-.43,1A1.35,1.35,0,0,1,30.74,15.5Zm0-3.69a1,1,0,0,0-1,1v1.23a1,1,0,0,0,1,1,1,1,0,0,0,.72-.3.94.94,0,0,0,.29-.52h-1v-.41a1,1,0,0,0,1-1,.92.92,0,0,0-.31-.71A.94.94,0,0,0,30.74,11.81Z"/><path class="cls-6" d="M34.88,15.5h-.82a1.39,1.39,0,0,1-1-.42,1.4,1.4,0,0,1-.41-1V11.4h1.43a1.45,1.45,0,0,1,1.43,1.43V13h-.61ZM33,11.81v2.25a1,1,0,0,0,1,1h.41V12.63h.6a.94.94,0,0,0-.29-.51,1,1,0,0,0-.72-.31Z"/><path class="cls-6" d="M37.41,18H37.2V15.48a1.33,1.33,0,0,1-.81-.4,1.37,1.37,0,0,1-.42-1V11.4h.21a1.35,1.35,0,0,1,1,.43,1.71,1.71,0,0,1,.21.26,1.74,1.74,0,0,1,.22-.27,1.36,1.36,0,0,1,1-.42h.2v5.12a1.32,1.32,0,0,1-.43,1A1.35,1.35,0,0,1,37.41,18Zm-1-6.13v2.23a1,1,0,0,0,.3.73,1,1,0,0,0,.73.3h.2v2.44a.88.88,0,0,0,.51-.29.94.94,0,0,0,.31-.72V11.83a.92.92,0,0,0-.52.28,1,1,0,0,0-.3.72H37.2a1.05,1.05,0,0,0-.82-1Z"/></g></g></svg>